<?xml version="1.0" encoding="utf-8"?>
<!-- Generator: Adobe Illustrator 24.2.3, SVG Export Plug-In . SVG Version: 6.00 Build 0)  -->
<svg version="1.1" id="Слой_1" xmlns="http://www.w3.org/2000/svg" xmlns:xlink="http://www.w3.org/1999/xlink" x="0px" y="0px"
	 viewBox="0 0 252 420" style="enable-background:new 0 0 252 420;" xml:space="preserve">
<style type="text/css">
	.st0{fill:#F2F2F2;}
	.st1{fill:#E5E5E5;}
</style>
<g id="_x33_">
	<polygon class="st0" points="168,336 168,420 252,336 252,252 168,252 	"/>
	<polygon class="st1" points="84,168 84,252 168,252 252,252 210,210 168,168 	"/>
	<polygon class="st0" points="252,84 168,0 168,84 168,168 210,210 252,168 	"/>
	<rect x="84" y="336" class="st1" width="84" height="84"/>
	<rect x="84" y="0" class="st1" width="84" height="84"/>
	<polygon class="st0" points="0,84 0,126 84,126 84,84 84,0 	"/>
	<polygon class="st0" points="84,294 0,294 0,336 84,420 84,336 	"/>
</g>
</svg>
