<?xml version="1.0" encoding="utf-8"?>
<!-- Generator: Adobe Illustrator 24.2.3, SVG Export Plug-In . SVG Version: 6.00 Build 0)  -->
<svg version="1.1" id="Слой_1" xmlns="http://www.w3.org/2000/svg" xmlns:xlink="http://www.w3.org/1999/xlink" x="0px" y="0px"
	 viewBox="0 0 252 420" style="enable-background:new 0 0 252 420;" xml:space="preserve">
<style type="text/css">
	.st0{fill:#E5E5E5;}
	.st1{fill:#F2F2F2;}
</style>
<g id="_x38_">
	<polygon class="st0" points="84,336 0,336 84,420 168,420 168,336 	"/>
	<polygon class="st1" points="168,336 168,420 252,336 252,252 168,252 	"/>
	<polygon class="st0" points="252,252 210,210 168,252 	"/>
	<polygon class="st0" points="168,252 168,168 84,168 0,168 42,210 84,252 	"/>
	<polygon class="st1" points="84,84 84,0 0,84 0,168 84,168 	"/>
	<polygon class="st0" points="168,84 252,84 168,0 84,0 84,84 	"/>
	<polygon class="st1" points="84,252 42,210 0,252 0,336 84,336 	"/>
	<polygon class="st1" points="252,84 168,84 168,168 168,252 210,210 252,168 	"/>
</g>
</svg>
