<?xml version="1.0" encoding="utf-8"?>
<!-- Generator: Adobe Illustrator 26.5.0, SVG Export Plug-In . SVG Version: 6.00 Build 0)  -->
<svg version="1.1" id="Layer_1" xmlns="http://www.w3.org/2000/svg" xmlns:xlink="http://www.w3.org/1999/xlink" x="0px" y="0px"
	 viewBox="0 0 580 1020" style="enable-background:new 0 0 580 1020;" xml:space="preserve">
<style type="text/css">
	.st0{fill:#E5E5E5;}
	.st1{fill:#CCCCCC;}
	.st2{fill:#FFFFFF;}
</style>
<rect x="30" y="990" class="st0" width="520" height="30"/>
<polygon class="st1" points="30,1020 0,990 0,990 30,990 "/>
<polygon class="st1" points="550,1020 580,990 580,990 550,990 "/>
<g>
	<path class="st2" d="M0,0v990h580V0H0z M105,960l-75-75l75-75l75,75L105,960z M290,960l-75-75l75-75l75,75L290,960z M475,960
		l-75-75l75-75l75,75L475,960z"/>
	<g>
		
			<rect x="116.9" y="805.1" transform="matrix(0.7071 -0.7071 0.7071 0.7071 -568.1594 344.6226)" class="st0" width="30" height="106.1"/>
		
			<rect x="25.1" y="843.2" transform="matrix(0.7071 -0.7071 0.7071 0.7071 -583.9345 306.6066)" class="st0" width="106.1" height="30"/>
	</g>
	<g>
		
			<rect x="301.9" y="805.1" transform="matrix(0.7071 -0.7071 0.7071 0.7071 -513.9715 475.4315)" class="st0" width="30" height="106.1"/>
		
			<rect x="210.1" y="843.2" transform="matrix(0.7071 -0.7071 0.7071 0.7071 -529.7521 437.407)" class="st0" width="106.1" height="30"/>
	</g>
	<g>
		
			<rect x="486.9" y="805.1" transform="matrix(0.7071 -0.7071 0.7071 0.7071 -459.7875 606.2458)" class="st0" width="30" height="106.1"/>
		
			<rect x="395.1" y="843.2" transform="matrix(0.7071 -0.7071 0.7071 0.7071 -475.5675 568.223)" class="st0" width="106.1" height="30"/>
	</g>
</g>
</svg>
