<?xml version="1.0" encoding="utf-8"?>
<!-- Generator: Adobe Illustrator 28.0.0, SVG Export Plug-In . SVG Version: 6.00 Build 0)  -->
<svg version="1.1" id="Layer_1" xmlns="http://www.w3.org/2000/svg" xmlns:xlink="http://www.w3.org/1999/xlink" x="0px" y="0px"
	 viewBox="0 0 2160 3825" style="enable-background:new 0 0 2160 3825;" xml:space="preserve">
<style type="text/css">
	.st0{fill:#FFFFFF;}
	.st1{fill:#40ACFF;}
	.st2{fill:#7FC8FF;}
	.st3{fill:#0091FF;}
	.st4{fill:#EBEDF2;}
	.st5{fill:#FFB340;}
	.st6{fill:#FFD059;}
	.st7{fill:#FF9700;}
</style>
<rect y="15" class="st0" width="2160" height="3810"/>
<g>
	<rect x="1461.7" y="2880" class="st1" width="288" height="288"/>
	<polygon class="st2" points="1401.7,2820 1401.7,3108 1461.7,3168 1461.7,2880 	"/>
	<polygon class="st3" points="1401.7,2820 1461.7,2880 1749.7,2880 1689.7,2820 	"/>
</g>
<g>
	<rect x="1461.7" y="2304" class="st1" width="288" height="288"/>
	<polygon class="st2" points="1401.7,2244 1401.7,2532 1461.7,2592 1461.7,2304 	"/>
	<polygon class="st3" points="1401.7,2244 1461.7,2304 1749.7,2304 1689.7,2244 	"/>
</g>
<g>
	<rect x="1461.7" y="1440" class="st1" width="288" height="288"/>
	<polygon class="st2" points="1401.7,1380 1401.7,1668 1461.7,1728 1461.7,1440 	"/>
	<polygon class="st3" points="1401.7,1380 1461.7,1440 1749.7,1440 1689.7,1380 	"/>
</g>
<g>
	<rect x="1461.7" y="288" class="st1" width="288" height="576"/>
	<polygon class="st2" points="1401.7,228 1401.7,804 1461.7,864 1461.7,288 	"/>
	<polygon class="st3" points="1401.7,228 1461.7,288 1749.7,288 1689.7,228 	"/>
</g>
<g>
	<polygon class="st4" points="619.9,3108 679.9,3168 967.9,3168 907.9,3108 	"/>
	<rect x="392.5" y="2880" class="st5" width="288" height="288"/>
	<polygon class="st6" points="332.5,2820 332.5,3108 392.5,3168 392.5,2880 	"/>
	<polygon class="st7" points="332.5,2820 392.5,2880 680.5,2880 620.5,2820 	"/>
</g>
<rect x="1749.7" y="3108" class="st4" width="410.3" height="60"/>
</svg>
