<?xml version="1.0" encoding="utf-8"?>
<!-- Generator: Adobe Illustrator 26.5.0, SVG Export Plug-In . SVG Version: 6.00 Build 0)  -->
<svg version="1.1" id="Layer_1" xmlns="http://www.w3.org/2000/svg" xmlns:xlink="http://www.w3.org/1999/xlink" x="0px" y="0px"
	 viewBox="0 0 580 990" style="enable-background:new 0 0 580 990;" xml:space="preserve">
<style type="text/css">
	.st0{fill:#EC103E;}
	.st1{display:none;}
	.st2{display:inline;fill:#EC103E;}
	.st3{display:inline;fill:#E5E5E5;}
	.st4{fill:#E5E5E5;}
</style>
<g>
	<rect x="338" y="642" class="st0" width="78" height="78"/>
	<rect x="260" y="642" class="st0" width="78" height="78"/>
	<rect x="182" y="642" class="st0" width="78" height="78"/>
	
		<rect x="164" y="525" transform="matrix(0.6461 -0.7632 0.7632 0.6461 -324.6387 427.8745)" class="st0" width="270.3" height="78"/>
	<rect x="182" y="408" class="st0" width="78" height="78"/>
	<rect x="260" y="330" class="st0" width="78" height="78"/>
	<rect x="338" y="408" class="st0" width="78" height="78"/>
	<polygon class="st0" points="260,330 182,408 260,408 	"/>
	<polyline class="st0" points="338,330 416,408 338,408 	"/>
</g>
<g class="st1">
	<polygon class="st2" points="329,705 251,705 251,363 329,285 	"/>
	<polygon class="st3" points="251,363 251,393 329,315 329,285 	"/>
</g>
<rect x="260" y="330" class="st4" width="78" height="30"/>
<polygon class="st4" points="416,672 258.8,672 284.4,642 416,642 "/>
<polygon class="st4" points="281.6,351.2 182,450.8 182.9,407.5 260.4,330 "/>
<polygon class="st4" points="316.6,351.2 416.2,450.8 415.3,407.5 337.8,330 "/>
<polygon class="st4" points="338,504.4 182,688.7 182.2,642.1 337.6,458.5 "/>
</svg>
