<?xml version="1.0" encoding="utf-8"?>
<!-- Generator: Adobe Illustrator 26.5.0, SVG Export Plug-In . SVG Version: 6.00 Build 0)  -->
<svg version="1.1" id="Layer_1" xmlns="http://www.w3.org/2000/svg" xmlns:xlink="http://www.w3.org/1999/xlink" x="0px" y="0px"
	 viewBox="0 0 660 690" style="enable-background:new 0 0 660 690;" xml:space="preserve">
<style type="text/css">
	.st0{display:none;fill:#282828;}
	.st1{fill:#FFFFFF;}
	.st2{fill:#CCCCCC;}
	.st3{fill:#E5E5E5;}
</style>
<rect class="st0" width="660" height="690"/>
<g>
	
		<rect x="-55.1" y="159.5" transform="matrix(0.7071 -0.7071 0.7071 0.7071 -73.7781 178.1807)" class="st1" width="466.6" height="37.3"/>
	
		<rect x="463.2" y="-55.1" transform="matrix(0.7071 -0.7071 0.7071 0.7071 15.1262 392.9122)" class="st1" width="37.3" height="466.6"/>
</g>
<rect x="462.8" y="-37.4" transform="matrix(0.7071 -0.7071 0.7071 0.7071 9.803 397.975)" class="st1" width="45" height="449.1"/>
<rect x="-49.5" y="165.3" transform="matrix(0.7071 -0.7071 0.7071 0.7071 -81.8367 178.0358)" class="st1" width="447" height="45"/>
<rect x="307.5" y="9.3" transform="matrix(0.7071 -0.7071 0.7071 0.7071 74.1676 242.6584)" class="st1" width="45" height="45"/>
<g>
	<polygon class="st2" points="42.5,414.8 42.5,372.4 330,84.8 330,127.2 	"/>
	<polygon class="st3" points="617.6,414.8 617.6,372.4 330,84.8 330,127.2 	"/>
</g>
<polygon class="st3" points="0,330 42.5,372.4 42.5,414.9 0,372.5 "/>
<polygon class="st2" points="617.6,414.9 660,372.5 660,330 617.6,372.4 "/>
<g>
	<polygon class="st2" points="213,498.9 213,541.4 330.1,424.2 330.1,381.8 	"/>
	<polygon class="st3" points="447.5,499.1 330.1,381.8 330.1,424.2 447.5,541.6 	"/>
</g>
<rect x="84.9" y="463.4" class="st1" width="150" height="196.6"/>
<polygon class="st3" points="84.9,660 234.9,660 234.9,690 84.9,690 "/>
<rect x="425.3" y="423.3" class="st1" width="150" height="236.7"/>
<polygon class="st2" points="425.3,660 575.3,660 575.3,690 426.1,690 "/>
<polygon class="st1" points="575.3,414.9 383.1,222.6 277,328.7 498,549.7 575.3,472.3 "/>
<rect x="255.1" y="200.9" transform="matrix(0.7071 -0.7071 0.7071 0.7071 -98.4123 314.2194)" class="st1" width="150" height="150"/>
<polygon class="st1" points="276.5,223.4 84.9,414.9 84.9,575.8 110.6,601.4 382.6,329.5 "/>
<rect x="-42.2" y="168.2" transform="matrix(0.7071 -0.7071 0.7071 0.7071 -89.0993 181.2629)" class="st1" width="432.9" height="60"/>
<rect x="457" y="-15.3" transform="matrix(0.7071 -0.7071 0.7071 0.7071 1.6776 402.7502)" class="st1" width="60" height="429.3"/>
<rect x="300" y="12.4" transform="matrix(0.7071 -0.7071 0.7071 0.7071 66.6706 245.7643)" class="st1" width="60" height="60"/>
</svg>
