<?xml version="1.0" encoding="utf-8"?>
<!-- Generator: Adobe Illustrator 26.5.0, SVG Export Plug-In . SVG Version: 6.00 Build 0)  -->
<svg version="1.1" id="Layer_1" xmlns="http://www.w3.org/2000/svg" xmlns:xlink="http://www.w3.org/1999/xlink" x="0px" y="0px"
	 viewBox="0 0 660 702" style="enable-background:new 0 0 660 702;" xml:space="preserve">
<style type="text/css">
	.st0{fill:#FFFFFF;}
	.st1{fill:#E5E5E5;}
	.st2{fill:#CCCCCC;}
</style>
<rect x="229.4" y="417.1" transform="matrix(0.7071 -0.7071 0.7071 0.7071 -212.0762 442.2028)" class="st0" width="396.7" height="120"/>
<rect x="270" y="24.7" transform="matrix(0.7071 -0.7071 0.7071 0.7071 36.7428 258.1636)" class="st0" width="120" height="120"/>
<rect x="127.1" y="287.3" class="st1" width="170" height="30"/>
<rect x="392.6" y="-26.1" transform="matrix(0.7071 -0.7071 0.7071 0.7071 -13.9833 380.7563)" class="st0" width="120" height="466.7"/>
<rect x="119.1" y="230.8" transform="matrix(0.7071 -0.7071 0.7071 0.7071 -247.3443 250.8535)" class="st0" width="120" height="386.4"/>
<rect x="159.1" y="70.6" transform="matrix(0.7071 -0.7071 0.7071 0.7071 -9.1486 239.1227)" class="st0" width="249.9" height="120"/>
<g>
	<polygon class="st1" points="0,329.8 0,329.8 0,372.2 330.1,702.2 329.9,659.8 	"/>
	<polygon class="st2" points="660,329.8 329.9,659.8 330.1,702.2 660,372.3 	"/>
</g>
<polygon class="st1" points="490.2,329.8 330,169.5 329.8,212 469,351 "/>
<polygon class="st2" points="254.6,244.9 275.8,266.1 329.8,212 330,169.5 "/>
<polygon class="st0" points="127.2,117.8 127.1,287.3 297.1,287.3 "/>
</svg>
