<?xml version="1.0" encoding="utf-8"?>
<!-- Generator: Adobe Illustrator 26.5.0, SVG Export Plug-In . SVG Version: 6.00 Build 0)  -->
<svg version="1.1" id="Layer_1" xmlns="http://www.w3.org/2000/svg" xmlns:xlink="http://www.w3.org/1999/xlink" x="0px" y="0px"
	 viewBox="0 0 915 957" style="enable-background:new 0 0 915 957;" xml:space="preserve">
<style type="text/css">
	.st0{display:none;fill:#57778C;}
	.st1{fill:#CCCCCC;}
	.st2{fill:#E5E5E5;}
	.st3{fill:#FFFFFF;}
</style>
<rect class="st0" width="915" height="957"/>
<rect x="-39.4" y="248.1" transform="matrix(0.7071 -0.7071 0.7071 0.7071 -110.4982 259.4213)" class="st1" width="594.6" height="30"/>
<polygon class="st2" points="878.9,463.7 857.7,484.9 457.5,84.7 457.5,42.2 "/>
<rect x="-65.3" y="216.4" transform="matrix(0.7071 -0.7071 0.7071 0.7071 -91.2354 242.5311)" class="st3" width="624.9" height="30"/>
<rect x="651.6" y="-80.6" transform="matrix(0.7071 -0.7071 0.7071 0.7071 32.4991 538.7554)" class="st3" width="30" height="621.5"/>
<rect x="872.4" y="436" transform="matrix(0.7071 -0.7071 0.7071 0.7071 -58.9929 759.5746)" class="st3" width="30" height="30"/>
<rect x="12.6" y="436" transform="matrix(0.7071 -0.7071 0.7071 0.7071 -310.8167 151.61)" class="st3" width="30" height="30"/>
<polygon class="st1" points="893.7,478.3 914.9,457.1 914.9,499.5 914.9,499.5 "/>
<polygon class="st2" points="0.1,499.7 0.1,457.3 21.3,478.5 "/>
<rect x="352.1" y="660.4" transform="matrix(0.7071 -0.7071 0.7071 0.7071 -279.7022 675.531)" class="st3" width="647" height="30"/>
<rect x="224.4" y="351.9" transform="matrix(0.7071 -0.7071 0.7071 0.7071 -407.4537 367.0966)" class="st3" width="30" height="647"/>
<polygon class="st1" points="914.9,457.4 457.5,914.8 457.5,957.2 914.9,499.8 "/>
<polygon class="st2" points="0.1,457.4 457.5,914.8 457.5,957.2 0.1,499.8 "/>
<path class="st3" d="M457.5,127.1l-330,330l330,330l330-330L457.5,127.1z M375.6,630.3V283.9l300,173.2L375.6,630.3z"/>
<path class="st2" d="M457.5,169.5l-330,330l330,330l330-330L457.5,169.5z M370.9,649.5v-300l259.8,150L370.9,649.5z"/>
<path class="st3" d="M457.5,127.1l-330,330l330,330l330-330L457.5,127.1z M370.9,607.1v-300l259.8,150L370.9,607.1z"/>
<g>
	<polygon class="st1" points="787.5,457 436.3,808.3 457.5,829.5 787.5,499.4 	"/>
	<polygon class="st2" points="127.5,457.1 127.5,499.4 457.5,829.5 457.5,787 	"/>
</g>
</svg>
