<?xml version="1.0" encoding="utf-8"?>
<!-- Generator: Adobe Illustrator 26.5.0, SVG Export Plug-In . SVG Version: 6.00 Build 0)  -->
<svg version="1.1" id="Layer_1" xmlns="http://www.w3.org/2000/svg" xmlns:xlink="http://www.w3.org/1999/xlink" x="0px" y="0px"
	 viewBox="0 0 150 150" style="enable-background:new 0 0 150 150;" xml:space="preserve">
<style type="text/css">
	.st0{display:none;fill:#459CDD;}
	.st1{fill:#FFFFFF;}
</style>
<rect class="st0" width="150" height="150"/>
<g>
	<path class="st1" d="M18,6v12H6V6H18 M24,0H0v24h24V0L24,0z"/>
</g>
<g>
	<path class="st1" d="M18,84v60H6V84H18 M24,78H0v72h24V78L24,78z"/>
</g>
<g>
	<path class="st1" d="M144,84v60h-12V84H144 M150,78h-24v72h24V78L150,78z"/>
</g>
<g>
	<path class="st1" d="M81,108v36H69v-36H81 M87,102H63v48h24V102L87,102z"/>
</g>
<g>
	<path class="st1" d="M81,6v36H69V6H81 M87,0H63v48h24V0L87,0z"/>
</g>
<g>
	<path class="st1" d="M144,6v12h-12V6H144 M150,0h-24v24h24V0L150,0z"/>
</g>
<g>
	<path class="st1" d="M81,69v12H69V69H81 M87,63H63v24h24V63L87,63z"/>
</g>
</svg>
