<?xml version="1.0" encoding="utf-8"?>
<!-- Generator: Adobe Illustrator 26.5.0, SVG Export Plug-In . SVG Version: 6.00 Build 0)  -->
<svg version="1.1" id="Layer_1" xmlns="http://www.w3.org/2000/svg" xmlns:xlink="http://www.w3.org/1999/xlink" x="0px" y="0px"
	 viewBox="0 0 210 210" style="enable-background:new 0 0 210 210;" xml:space="preserve">
<style type="text/css">
	.st0{display:none;fill:#5070D6;}
	.st1{fill:#FFFFFF;}
</style>
<rect class="st0" width="210" height="210"/>
<rect x="57" y="204" class="st1" width="96" height="6"/>
<rect x="102" y="126" class="st1" width="6" height="84"/>
<g>
	<path class="st1" d="M147,6v105.5L132.5,126h-55L63,111.5V6H147 M153,0H57v114l18,18h60l18-18V0L153,0z"/>
</g>
<path class="st1" d="M57,18v78H20.5L6,81.5V18H57 M63,12H0v72l18,18h45V12L63,12z"/>
<path class="st1" d="M153,18v78h36.5L204,81.5V18H153 M147,12h63v72l-18,18h-45V12L147,12z"/>
</svg>
