<?xml version="1.0" encoding="utf-8"?>
<!-- Generator: Adobe Illustrator 26.5.0, SVG Export Plug-In . SVG Version: 6.00 Build 0)  -->
<svg version="1.1" id="Layer_1" xmlns="http://www.w3.org/2000/svg" xmlns:xlink="http://www.w3.org/1999/xlink" x="0px" y="0px"
	 viewBox="0 0 150 150" style="enable-background:new 0 0 150 150;" xml:space="preserve">
<style type="text/css">
	.st0{display:none;fill:#6856D6;}
	.st1{fill:#FFFFFF;}
</style>
<rect class="st0" width="150" height="150"/>
<g>
	<rect x="64.4" y="64.4" transform="matrix(0.7071 -0.7071 0.7071 0.7071 -31.066 75)" class="st1" width="21.2" height="21.2"/>
</g>
<g>
	<path class="st1" d="M75,8.5l17.7,17.7l1.8,1.8H97H122V53v2.5l1.8,1.8L141.5,75l-17.7,17.7l-1.8,1.8V97V122H97h-2.5l-1.8,1.8
		L75,141.5l-17.7-17.7l-1.8-1.8H53H28V97v-2.5l-1.8-1.8L8.5,75l17.7-17.7l1.8-1.8V53V28H53h2.5l1.8-1.8L75,8.5 M75,0L53,22H22V53
		L0,75l22,22V128H53l22,22l22-22H128V97l22-22l-22-22V22H97L75,0L75,0z"/>
</g>
</svg>
