<?xml version="1.0" encoding="utf-8"?>
<!-- Generator: Adobe Illustrator 26.5.0, SVG Export Plug-In . SVG Version: 6.00 Build 0)  -->
<svg version="1.1" id="Layer_1" xmlns="http://www.w3.org/2000/svg" xmlns:xlink="http://www.w3.org/1999/xlink" x="0px" y="0px"
	 viewBox="0 0 150 150" style="enable-background:new 0 0 150 150;" xml:space="preserve">
<style type="text/css">
	.st0{display:none;fill:#7081E5;}
	.st1{fill:#FFFFFF;}
</style>
<rect class="st0" width="150" height="150"/>
<g>
	<path class="st1" d="M40.2,58.9l50.9,50.9l-8.5,8.5L31.7,67.4L40.2,58.9 M40.2,50.4l-17,17l59.4,59.4l17-17L40.2,50.4L40.2,50.4z"
		/>
</g>
<g>
	<path class="st1" d="M106.1,6L144,43.9v13l-40.2,40.2L52.9,46.2L93.1,6H106.1 M108.6,0h-18L44.4,46.2l59.4,59.4L150,59.4v-18
		L108.6,0L108.6,0z"/>
</g>
<g>
	<path class="st1" d="M48.7,92.8l8.5,8.5L14.5,144h-3L6,138.6v-3L48.7,92.8 M48.7,84.3L0,133v8l9,9h8l48.7-48.7L48.7,84.3L48.7,84.3
		z"/>
</g>
</svg>
