<?xml version="1.0" encoding="utf-8"?>
<!-- Generator: Adobe Illustrator 26.5.0, SVG Export Plug-In . SVG Version: 6.00 Build 0)  -->
<svg version="1.1" id="Layer_1" xmlns="http://www.w3.org/2000/svg" xmlns:xlink="http://www.w3.org/1999/xlink" x="0px" y="0px"
	 viewBox="0 0 150 150" style="enable-background:new 0 0 150 150;" xml:space="preserve">
<style type="text/css">
	.st0{fill:#FFFFFF;}
</style>
<g>
	<polygon class="st0" points="39.6,0 36.6,3 36.6,42.6 42.6,42.6 42.6,3 	"/>
	<polygon class="st0" points="79.2,39.6 76.2,42.6 36.6,42.6 36.6,36.6 76.2,36.6 	"/>
	
		<rect x="36.6" y="57.3" transform="matrix(0.7071 -0.7071 0.7071 0.7071 -66.4447 60.3457)" class="st0" width="6" height="106.1"/>
	
		<rect x="57.3" y="107.4" transform="matrix(0.7071 -0.7071 0.7071 0.7071 -45.7203 110.3787)" class="st0" width="106.1" height="6"/>
	
		<rect x="107.4" y="-13.4" transform="matrix(0.7071 -0.7071 0.7071 0.7071 4.3127 89.6543)" class="st0" width="6" height="106.1"/>
	<rect x="31.8" y="17.9" transform="matrix(0.7071 -0.7071 0.7071 0.7071 2.311 47.3765)" class="st0" width="53.1" height="6"/>
</g>
</svg>
